<?xml version="1.0" encoding="UTF-8"?>
<svg id="Layer_1" data-name="Layer 1" xmlns="http://www.w3.org/2000/svg" viewBox="0 0 261.27 71.9">
  <defs>
    <style>
      .cls-1 {
        fill: #c9a17f;
      }
    </style>
  </defs>
  <g>
    <path class="cls-1" d="M260.7,27.55c-.68-.37-4.09-.08-4.42,.37-.12,.17-.38,.78-.57,1.37-.55,1.66-3.93,8.34-4.88,9.64-1.46,2-2.76,3.34-3.75,3.87-.52,.28-1.02,.44-1.1,.37-.35-.36,1.99-5.65,3.63-8.18,.64-.99,2.38-4.81,2.53-5.55,.26-1.28-.22-1.61-2.31-1.61-1.63,0-1.86,.06-2.35,.7-.31,.38-.55,.84-.55,1.02s-.92,1.98-2.03,4.01c-1.11,2.03-2.45,4.5-2.97,5.49-1.6,3.03-4.96,5.74-5.43,4.37-.29-.88,1.11-4.27,3.91-9.43,.74-1.36,1.64-3.03,2.02-3.72,.79-1.46,1.36-2.44,1.65-2.83,.12-.15,.37-.5,.56-.78,.25-.36,.8-.54,2.04-.66,1.68-.16,1.71-.18,1.79-1,.06-.67-.08-.94-.71-1.39-.82-.59-.88-1.31-.15-2.15,.61-.73,2.77-5.05,2.77-5.57,0-1.1-.75-1.42-3.01-1.26-1.15,.08-2.21,.25-2.34,.39-.14,.14-.55,1.09-.91,2.13-.78,2.24-2.59,5.48-3.38,6.03-.31,.22-.99,.4-1.5,.4-1.4,.01-2.1,.26-2.28,.82-.25,.82,.11,1.5,.95,1.8,1,.34,1.03,1.12,.11,2.33-.37,.49-.85,1.28-1.07,1.75-.22,.48-.61,1.22-.87,1.66-1.23,2.04-1.92,3.24-2.23,3.85-1.75,3.51-5.23,7.82-5.82,7.23-.25-.26,.64-3.34,1.15-3.96,.3-.37,2.46-4.49,4.51-8.64,.33-.67,.28-1.69-.1-2-.2-.16-1.12-.22-2.24-.13l-1.91,.14-.81,1.31c-.45,.72-.82,1.42-.82,1.56s-.11,.46-.24,.71c-.14,.25-.6,1.18-1.02,2.05-2.48,5.13-6,9.88-7.14,9.64-.81-.17-.49-1.12,1.57-4.7,3.87-6.73,4.83-9.24,3.84-10.07-.52-.42-3.78-.48-4.27-.07-.21,.17-.46,.76-.56,1.3-.1,.54-.75,2.06-1.45,3.37-1.7,3.23-1.9,3.57-2.75,4.7-.4,.54-1.17,1.61-1.71,2.38-2.77,4.04-4.6,4.6-2.84,.88,.37-.79,.77-1.5,.89-1.57,.12-.08,1.38-2.46,2.82-5.31,2.19-4.36,2.54-5.23,2.26-5.58-.46-.54-2.86-.54-4.24,.01-.79,.32-1.18,.35-1.58,.13-.81-.43-3.04-.34-4.19,.18-2.73,1.24-6.33,4.21-7.71,6.37-.26,.4-.63,.9-.82,1.1-.19,.19-.74,.97-1.23,1.72-2.22,3.44-7.09,7.24-8.38,6.54-1-.53-.93-3.2,.12-4.69,.24-.33,1.15-.82,2.2-1.16,2.93-.97,4.83-2.06,6.5-3.75,2.85-2.87,3.13-5.32,.77-6.58-1.57-.83-6.67,1.13-9.2,3.52-.29,.28-.8,.69-1.12,.91-.74,.49-2.78,3.53-3.83,5.68-.74,1.54-1.6,4.78-1.42,5.38,.05,.16,.16,.63,.25,1.04,.23,1.03,1.84,2.52,2.96,2.73,2.76,.51,4.6-.24,7.8-3.18l1.71-1.58,.37,1.44c.4,1.59,1.37,3.05,2.32,3.48,.89,.41,3.1-.46,4.61-1.8,1.93-1.72,2.67-1.98,2.69-.93,0,.23,.33,.82,.73,1.3,1.23,1.48,2.92,1.08,5.88-1.4,1.23-1.03,1.46-1.03,1.72,0,.1,.38,.5,.97,.89,1.32,1.45,1.27,3.8,.61,6.02-1.7,.73-.75,1.4-1.27,1.5-1.16,.1,.1,.31,.63,.49,1.16,.33,1.07,1.54,1.84,2.93,1.88,.73,.02,2.67-1.05,3.99-2.19,.76-.66,.71-.67,1.16,.21,.21,.4,.71,1.07,1.12,1.47,.68,.69,.84,.73,2.21,.56,1.47-.18,3.09-.83,3.77-1.51,.72-.71,1.7-1.23,1.99-1.05,.16,.11,.38,.46,.48,.78,.21,.69,1.3,1.52,2.31,1.76,.38,.09,1.28-.01,1.99-.22,.71-.22,1.4-.4,1.52-.4,.93-.01-2.33,5.2-4.74,7.58-1.71,1.68-2.99,2.44-4.52,2.69-1.31,.21-1.69-.22-1.66-1.84,.03-1.16-.07-1.43-.69-1.97-.88-.76-1.37-.78-2.47-.1-1.1,.67-1.54,2.1-1.03,3.33,.46,1.1,1.89,2.18,3.07,2.32,.51,.07,1.17,.13,1.46,.15,.9,.06,4.33-.45,4.83-.72,1.59-.84,2.7-1.3,2.84-1.16,.09,.09,.16,.02,.16-.14,0-.17,.35-.48,.77-.7,.93-.48,4.81-4.19,4.81-4.6,0-.16,.15-.45,.34-.64,.4-.41,3.11-5.1,3.11-5.39,0-.1,.68-1.34,1.51-2.75,.84-1.41,1.95-3.4,2.48-4.42,.88-1.72,1.52-2.9,3.68-6.77,.99-1.78,1.1-3.29,.26-3.73Zm-65.04,3.99c.96,0-.41,2.36-2.3,3.94-1.25,1.05-1.92,1.36-1.92,.9,0-.73,3.58-4.84,4.22-4.84Zm12.88,5.33c-.2,.17-.37,.45-.37,.62,0,.73-2.76,4.71-4.13,5.97-1.05,.96-1.71,1.36-2.24,1.36-1.83,0-1.28-2.29,1.82-7.57,1.42-2.4,4.06-5.5,5.22-6.13,.9-.48,.93-.48,1.45,.03,.48,.49,.49,.62,.16,1.72-.48,1.59-1.44,3.62-1.91,4Z"/>
    <path class="cls-1" d="M134.57,38.76c-.42,.06-1,.76-2.01,2.41-1.82,2.95-4.55,5.85-5.41,5.72-.51-.07-.61-.23-.57-1,.03-.6,.25-1.06,.66-1.37,.34-.26,.53-.55,.43-.65-.19-.19,1.17-2.82,2.46-4.76,.38-.59,.92-1.48,1.18-1.99,2.47-4.77,2.51-4.88,2-5.85-.24-.43-.54-.48-2.31-.41-1.73,.07-2.11,.17-2.52,.68-.41,.51-.62,1.17-.43,1.4,.11,.13-2.86,5.64-3.32,6.16-.26,.3-.84,1.28-1.29,2.18-.52,1.05-1.43,2.24-2.5,3.27-1.73,1.66-2.42,1.84-2.11,.57,.15-.61,2.79-6.04,3.69-7.61,.17-.29,.8-1.36,1.39-2.38,.6-1.03,1.27-2.22,1.48-2.66,.82-1.64,2.72-5.08,3.37-6.1,.37-.59,1.2-2.08,1.85-3.32,.64-1.24,1.27-2.37,1.4-2.51,.44-.47,.25-1.7-.31-2.09-.4-.28-.8-.32-1.53-.16-.54,.13-1.41,.23-1.94,.24-1.12,.01-1.43,.31-1.66,1.62-.1,.52-.65,1.74-1.23,2.71-.58,.96-1.06,1.85-1.06,1.97s-.28,.63-.62,1.14c-.35,.51-1.2,2-1.9,3.32-.7,1.31-1.42,2.56-1.6,2.78-.18,.22-.58,.88-.89,1.46-.31,.59-.71,1.3-.89,1.6-1.92,3.15-2.55,4.11-3.25,4.91-.45,.51-1.1,1.4-1.46,1.99-1.21,2-3.48,4.64-3.98,4.64-.09,0-.3-.13-.47-.3-.32-.32,.05-1.12,2.84-6.2,2.97-5.41,4.27-8.19,3.98-8.48-.41-.41-3.8-.35-4.32,.08-.36,.3-.64,.28-1.79-.1-1.32-.44-1.41-.43-3.1,.12-3.06,1-4.97,2.52-8.98,7.09-.81,.92-2.31,4-2.8,5.77-.29,1.02-.62,1.5-1.53,2.19-1.42,1.09-2.62,1.16-5.27,.34-4.23-1.32-4.35-1.46-2.91-3.23,.51-.62,1.55-2.35,2.32-3.86,1.74-3.4,3-4.89,4.55-5.34,1.97-.58,6.1-2.95,8.29-4.76,1.99-1.66,5.34-5.29,5.68-6.15,.08-.22,.49-.98,.91-1.7,.42-.71,.89-1.93,1.05-2.7,.25-1.24,.21-1.53-.3-2.6-.54-1.11-.68-1.22-2.01-1.49-1.84-.38-3.21-.17-5.4,.86-4.95,2.33-9.33,7.01-13.57,14.49-1.72,3.05-2.55,3.6-4.21,2.85-1.41-.63-2.26-1.47-2.97-2.94-.51-1.06-.58-1.52-.45-3.17,.17-2.27,.71-3.47,2.43-5.39,.88-.97,1.64-1.52,2.66-1.9,1.35-.5,1.52-.51,2.82-.12,1.68,.49,2.63,.21,2.63-.8,0-1.14-1.09-1.58-3.56-1.42-1.77,.12-2.49,.32-4.08,1.11-2.62,1.32-5.16,3.73-6.3,5.99-1.13,2.25-1.3,3.22-.92,5.32,.54,3.03,2.99,5.47,5.97,5.95,2.05,.33,2.25,.41,2.25,.89,0,.26-.41,1.17-.93,2.02-.51,.85-.92,1.59-.92,1.66,0,.2-2.12,3.23-2.37,3.39-.13,.08-1-.05-1.92-.29-2.21-.56-6.49-.35-8.21,.41-1.51,.67-2.82,1.95-3.04,2.99-.16,.69-.04,.95,.84,1.86,.56,.58,1.38,1.22,1.82,1.41,1.91,.85,6.63,.3,9.69-1.13,1.18-.55,2.53-.55,3.72,0,.98,.46,3,1.07,3.79,1.15,.26,.02,1.22,.12,2.13,.21,1.95,.2,4.16-.29,5.91-1.31l1.16-.68,1.03,1.08c.85,.9,1.2,1.08,2.04,1.08,1.18,0,2.92-.93,4.57-2.43,1.32-1.2,1.93-1.31,1.93-.34,0,.37,.29,.96,.65,1.32,1.35,1.35,3.89,.6,6.61-1.93,1.39-1.3,1.75-1.24,1.76,.3,.01,1.2,1.08,2.02,2.66,2.02,1.01,0,1.66-.21,2.89-.93,1.85-1.09,2.29-1.14,2.72-.33,.61,1.15,1.3,1.52,2.81,1.52,3.45,0,6.52-2.65,9.64-8.33,1.22-2.24,1.37-3.16,.46-3.03Zm-37.58-14.34c.12-.05,.21-.2,.21-.35,0-.51,2.62-4.11,3.7-5.09,1.41-1.27,2.19-1.62,3.09-1.4,.66,.17,.7,.27,.59,1.3-.26,2.24-4.56,7.76-8.59,11.01-1.27,1.03-2.77,1.69-2.77,1.23,0-.34,3.52-6.6,3.77-6.7Zm-22.87,23.44c-.78,.41-4,.58-4.35,.23-.38-.38-.15-1.11,.48-1.52,.75-.49,2.21-.55,3.66-.15,1.2,.33,1.28,.89,.21,1.44Zm27.49-.97c-.91,.69-1.06,.71-1.6,.16-.52-.52-.52-1.07-.02-2.5,.67-1.89,4.32-7.67,5.93-9.38,.95-1.01,2.68-1.9,3.03-1.55,.61,.62,.02,2.96-1.33,5.25-2.71,4.59-4.31,6.72-6.01,8.02Z"/>
    <path class="cls-1" d="M187.26,19.6c-1.58-3.6-5.68-5.97-10.81-6.26-2.47-.13-6.73,.33-8.6,.94-2.32,.76-4.36,1.57-4.53,1.8-.08,.11-.48,.35-.88,.53-.4,.18-1.57,.88-2.6,1.56-4.35,2.86-6.75,5.9-7.68,9.73-.49,2-.53,2.52-.27,3.76,.73,3.54,3.26,5.43,6.5,4.85,1.41-.25,4.46-1.72,5.41-2.6,.82-.77,.71-.15-.37,1.92-.93,1.81-1.38,2.52-3,4.74-1.65,2.26-2.04,2.75-2.62,3.3-2.05,1.93-3.98,2.84-6.12,2.87-2.29,.04-2.59-.28-2.02-2.08,.4-1.25,.4-1.41-.02-2.3-.45-.93-1.44-1.53-2.56-1.53-.6,0-2.3,1.66-2.66,2.59-.15,.4-.2,1.15-.11,1.66,.19,1.01,1.37,2.92,1.81,2.92,.15,0,.49,.19,.75,.43,.26,.24,.87,.52,1.35,.63,1.57,.36,4.81,.22,6.98-.32,1.17-.28,2.24-.61,2.39-.73,.14-.11,.55-.3,.9-.4,.83-.26,3.47-1.82,4.14-2.45,.87-.82,1.41-.92,1.61-.29,.36,1.12,2.24,2.56,4.12,3.16,1.48,.46,2.26,.55,4.28,.45,3.35-.16,5.78-1.26,7.93-3.58,1.88-2.04,2.49-3.78,2.31-6.58-.1-1.65-.29-2.24-1.26-4.02-.63-1.15-1.31-2.19-1.51-2.31-.56-.33-.22-.64,1.85-1.68,2.15-1.07,4.44-3.22,5.1-4.79,.72-1.69,.81-4.52,.19-5.92Zm-9.42,17.82c-.22,3.12-1.96,5.89-4.62,7.4-1.59,.89-3.49,1.23-4.52,.8-.32-.14-1.03-.67-1.58-1.19-.55-.52-1.22-1.01-1.48-1.09-.66-.21-.61-.4,.39-1.52,1.65-1.86,2.58-3.31,4.54-7.11,1.47-2.83,1.61-2.95,2.96-2.6,.58,.14,1.36,.33,1.72,.41,.9,.21,1.55,.81,2.18,2.06,.44,.85,.51,1.39,.41,2.84Zm4.74-15.51c-.21,1.16-.6,2.29-1.13,3.34-.35,.68-.76,1.33-1.34,1.82-.31,.27-.67,.49-1.01,.73-.63,.45-1.23,.99-1.97,1.25-.68,.23-1.44,.58-2.17,.55-1.22-.07-1.27-.63-.19-2.36,.49-.77,1.06-1.76,1.28-2.2,.44-.89,2.44-2.97,4.22-4.39,.96-.76,1.13-1.03,.97-1.52-.15-.5-.38-.6-1.33-.6-2.2,0-5.47,1.88-8.45,4.85-1.07,1.07-2.03,2.12-2.13,2.33-.25,.53-3.01,4.82-3.39,5.26-.22,.25-.39,.27-.6,.06-.5-.5-1.4-.31-2.46,.54-.57,.45-1.27,.92-1.57,1.03-3.19,1.22-5.18-.27-4.85-3.65,.18-1.88,1.9-5.22,3.52-6.83,1.6-1.6,2.72-2.52,3.03-2.52,.13,0,.38-.18,.56-.4,.41-.49,4.19-2.32,5.97-2.89,2.14-.68,4.96-.98,6.55-.7,.78,.13,1.83,.3,2.33,.37,1.28,.19,2.89,1.42,3.66,2.82,.11,.18,.21,.36,.29,.56,.35,.78,.37,1.72,.21,2.55Z"/>
    <path class="cls-1" d="M132.55,26.94c-.55-.66-.64-1.92-.2-2.77,1.2-2.33,4.03-2.61,4.57-.46,.22,.88-.02,1.45-1.1,2.59-.77,.81-1.13,1-1.96,1-.56,0-1.15-.16-1.31-.36Z"/>
  </g>
  <g>
    <path class="cls-1" d="M40.87,41.05c-.06-1.43-.3-3.19-.58-4.14-.26-.9-.73-2.12-.95-2.45-.32-.48-.3-.88,.11-1.88,.37-.9,.7-2.39,.8-3.66,.23-2.76-.16-5.54-1.19-8.39-.14-.39-1.13-2.39-1.38-2.8-.3-.48-1-1.53-1.29-1.95-.36-.51-2.18-2.34-2.75-2.76-.21-.15-.4-.3-.43-.33-.13-.14-.88-.7-.94-.7-.04,0-.26-.13-.49-.28-.41-.28-1.13-.67-2.12-1.14-.27-.13-.84-.34-1.25-.47-.41-.13-.82-.29-.9-.36-.09-.08-.23-.14-.32-.14-.23,0-.21-.18,.08-.84,.14-.31,.32-.94,.41-1.4,.15-.77,.15-.91,0-1.7-.09-.47-.27-1.11-.42-1.43-.28-.6-1.17-1.83-1.56-2.17-.55-.47-1.07-.85-1.16-.85-.06,0-.12-.03-.14-.08-.05-.11-1.49-.7-2.28-.93-.93-.27-3.51-.27-4.65,0-1.9,.46-3.34,1.35-4.57,2.83-.67,.79-1.32,2.76-1.24,3.71,.07,.83,.28,1.67,.54,2.19,.37,.75,.33,.83-.76,1.28-1.05,.43-3.55,1.65-3.73,1.82-.06,.06-.46,.37-.89,.7-.43,.32-.77,.62-.77,.67,0,.05-.05,.09-.11,.09-.23,0-1.91,1.86-2.76,3.06-1.02,1.43-1.95,3.43-2.46,5.23-.19,.68-.64,3.14-.64,3.54,0,.17-.03,.66-.05,1.1-.08,1.38,.12,3.36,.5,4.89,.51,2.07,.75,2.8,1.06,3.27,.21,.3,.19,.41-.24,1.34-.42,.93-.97,3.15-1.04,4.18-.03,.49-.09,1.12-.12,1.4-.09,.68-.09,1.38,0,2.8,.09,1.32,.45,3.74,.59,3.89,.05,.05,.09,.2,.09,.33s.06,.36,.14,.51c.08,.15,.24,.58,.36,.94,.12,.37,.27,.7,.33,.74,.13,.09,.66,.85,.66,.96,0,.12,1.38,1.79,2.55,3.1,.06,.06,.37,.41,.69,.76,.32,.36,1.36,1.44,2.31,2.4,1.41,1.43,1.79,1.87,2,2.35,.3,.68,.39,1.63,.22,2.59-.11,.62-.91,3.07-1.26,3.84-.28,.62-1.32,3.81-1.32,4.06,0,.3,.38,.73,.65,.73,.44,0,.76-.4,1.02-1.3,.13-.46,.3-.98,.38-1.14,.17-.36,.55-1.54,.55-1.69,0-.06,.09-.29,.19-.51,.39-.82,1.33-3.79,1.38-4.36,.11-1.19-.36-2.83-1.06-3.76-.12-.15-.97-1.04-1.89-1.97-1.58-1.61-2.71-2.83-3.23-3.5-.12-.16-.38-.46-.56-.65s-.33-.38-.33-.41c0-.04-.15-.22-.33-.4-.18-.18-.46-.54-.62-.79-.16-.25-.36-.54-.46-.65-.26-.29-.82-1.5-1.01-2.14-.43-1.49-.62-3.27-.61-5.74,.01-3.54,.49-5.7,1.55-6.98,.33-.4,.82-.67,1.05-.59,.21,.08,.41,.66,.41,1.23,0,.29-.11,1.07-.25,1.73-.22,1.05-.25,1.36-.19,2.33,.03,.61,.13,1.42,.21,1.79,.08,.38,.19,.99,.25,1.37,.05,.38,.2,1,.31,1.38,.12,.38,.19,.81,.16,.95-.05,.27,.25,1.46,.43,1.67,.06,.07,.16,.28,.23,.47,.4,1.09,2.43,3.81,3.11,4.18,.24,.13,.3,.13,.54,0,.21-.12,.27-.24,.29-.55,.02-.33-.03-.47-.35-.86-1.35-1.66-1.6-2.04-2.38-3.57-.39-.77-.47-1.29-.26-1.69,.31-.58,1.2,0,2.36,1.53,.21,.27,.43,.55,.49,.61,.06,.06,.26,.31,.46,.55,.9,1.14,2.23,2.24,3.45,2.84,.38,.19,1.55,1.29,1.55,1.46,0,.05,.13,.27,.3,.49,.26,.36,.77,1.79,1.1,3.06,.06,.23,.1,.84,.1,1.35,0,.51-.03,3.28-.06,6.17-.03,2.88-.06,5.83-.07,6.54-.03,1.45,.08,1.79,.61,1.87,.15,.02,.3,.05,.35,.06,.04,.01,.16-.07,.26-.17,.13-.14,.21-.43,.27-1.08,.09-.92,.09-1.14,.07-5.03-.02-3.72,.07-8.13,.18-8.23,.06-.06,.31-.05,.67,.04,.78,.18,3.02,.15,3.64-.06,.56-.18,.71-.35,.71-.76,0-.49-.25-.61-1.08-.53-1.28,.13-2.41,.07-3.21-.17-.41-.12-.78-.27-.83-.33-.05-.06-.27-.66-.49-1.33-.44-1.31-1.1-2.58-1.75-3.36-.39-.47-1.78-1.47-2.24-1.61-.31-.09-1.52-1.11-1.94-1.63-.8-1-1.59-1.89-2.34-2.67-.99-1.02-1.66-1.37-2.52-1.32l-.55,.03-.23-.85c-.13-.47-.26-1.07-.28-1.35-.07-.74-.08-2.67,0-2.85,.03-.08,.12-.63,.19-1.21,.16-1.32,.06-2.78-.2-3.15-.56-.77-.62-1.09-.42-2.17,.2-1.07,.97-3.34,1.3-3.85,.09-.14,.34-.56,.56-.95,.71-1.23,2.34-2.81,3.75-3.65,1.8-1.07,3.65-1.79,5.11-1.99,.44-.06,1.02-.18,1.29-.25,.71-.21,3.83-.3,5.08-.16,1.36,.15,3.02,.47,4.1,.78,2.58,.73,4.85,2.19,6.21,3.98,.5,.67,1.35,1.95,1.35,2.05,0,.05,.09,.28,.21,.51,.35,.69,.78,2.16,1.01,3.45,.1,.59,.09,.67-.17,1.32-.23,.58-.27,.85-.27,1.62,0,.52,.07,1.21,.16,1.57,.5,2.02,.56,2.76,.31,3.94-.08,.39-.15,.89-.15,1.13s-.07,.58-.15,.77c-.14,.33-.16,.35-.68,.35-.6,0-1.13,.18-1.64,.58-.34,.26-1.33,1.47-2.47,3.02-.79,1.06-1.81,2.03-2.8,2.64-1.54,.94-2.44,2.21-3.1,4.39-.5,1.66-.62,3.4-.35,5.21,.08,.55,.24,4.7,.23,5.7,0,.11,.03,.56,.09,1,.05,.44,.12,1.67,.15,2.75,.03,1.07,.08,2.02,.09,2.1,.02,.08,.03,.34,.04,.57,0,.32,.06,.46,.23,.56,.44,.28,.64,.28,.96,.01l.31-.26-.05-1.12c-.03-.61-.07-1.37-.09-1.67-.03-.3-.07-1.2-.1-2-.03-.79-.08-1.74-.1-2.1-.03-.36-.08-1.28-.11-2.05-.1-2.38-.15-3.19-.2-3.45-.11-.51-.08-3.16,.04-3.75,.25-1.22,.73-2.58,1.12-3.14,.58-.85,.95-1.19,1.98-1.84,.96-.61,1.89-1.45,2.5-2.25,1.23-1.63,2.52-3.18,2.78-3.32,.51-.3,.81-.08,.82,.59,0,.89-1.43,3.59-2.55,4.8-.11,.12-.27,.42-.33,.65-.12,.41-.12,.43,.14,.65,.15,.13,.36,.23,.48,.23,.3,0,.8-.36,1.08-.79,.13-.2,.39-.55,.57-.77,.18-.23,.33-.45,.33-.49s.07-.15,.16-.25c.21-.24,.46-.67,.98-1.74,.52-1.07,.74-1.81,.75-2.51,0-.29,.09-.98,.2-1.55,.31-1.64,.41-2.55,.41-3.72,0-1.18-.07-1.7-.39-2.82-.22-.77-.28-1.93-.11-2.37,.26-.68,1.35,.04,1.93,1.27,.55,1.15,1.14,3.45,1.22,4.72,.06,.97,.06,3.18,0,3.89-.21,2.57-.46,3.65-1.08,4.68-.23,.39-.49,.82-.57,.96-.08,.14-.42,.64-.75,1.09-.33,.46-.67,.93-.75,1.05-.14,.2-.52,.67-1.63,2-1.17,1.4-1.77,2.08-2.56,2.9-.48,.49-1,1.14-1.18,1.44-.45,.79-.72,1.91-.68,2.76,.05,.95,.22,1.91,.38,2.17,.08,.12,.31,.67,.52,1.22,.21,.55,.57,1.49,.81,2.1,.24,.6,.55,1.41,.69,1.79,.69,1.83,1.14,2.46,1.66,2.3,.8-.26,.7-.84-.7-4.15-.11-.24-.33-.85-.5-1.35-.17-.49-.4-1.08-.49-1.3-.87-1.92-.98-2.48-.74-3.62,.15-.73,.49-1.47,.84-1.83,1.85-1.92,5.39-6.11,5.39-6.38,0-.06,.06-.14,.12-.18,.15-.09,.97-1.27,.97-1.39,0-.04,.07-.15,.15-.24,.25-.27,.75-1.28,1.06-2.13,.49-1.32,.61-3.22,.46-6.96ZM13.16,6.36c.04-.78,.1-1.02,.41-1.69,.68-1.44,2.15-2.61,3.96-3.13,.51-.15,.98-.18,2.25-.18,1.52,0,1.64,.02,2.49,.31,1.35,.47,1.76,.71,2.57,1.57,.54,.56,.71,.83,1.2,1.77,.27,.53,.33,1.69,.13,2.48-.19,.72-.58,1.45-.82,1.54-.17,.06-.28,.06-2.15-.2-.9-.12-1.67-.15-3.3-.11-2.46,.06-2.83,.09-3.97,.29-1.14,.2-1.63,.26-1.78,.2-.21-.08-.68-.85-.87-1.42-.14-.41-.17-.74-.13-1.45Zm21.51,19.69c-.06,.06-.17-.06-.65-.73-.38-.53-2.93-2.84-3.14-2.84-.03,0-.29-.16-.58-.35-.29-.19-.59-.35-.65-.35s-.13-.03-.15-.08c-.09-.2-2.78-1.14-3.75-1.31-.26-.05-.84-.15-1.28-.24-1.33-.26-2.5-.32-4.65-.26-2.8,.08-3.3,.16-5.89,.88-2.39,.67-4.48,1.88-6.25,3.65-.55,.55-1.35,1.47-1.77,2.04-.42,.57-.76,.98-.76,.9,0-.24,.31-1.43,.46-1.76,.08-.17,.14-.38,.14-.45,0-.23,1.15-2.49,1.56-3.08,.53-.75,2.45-2.66,3.18-3.15,.64-.44,1.41-.85,2.45-1.32,.69-.31,1.01-.42,2.17-.71,.4-.1,.76-.21,.81-.24,.05-.03,.56-.12,1.13-.2,5.28-.73,10.11,.3,13.38,2.86,.84,.65,2.19,2.01,2.19,2.2,0,.05,.14,.25,.3,.44,.16,.19,.3,.4,.3,.48s.04,.15,.09,.17c.11,.04,.61,1.03,.61,1.19,0,.06,.08,.23,.18,.38,.21,.31,.67,1.8,.58,1.89Zm3.46,5.53c-.22,.67-.31,.84-.47,.84-.25,0-.3-.26-.44-2.2-.06-.82-.22-2.01-.35-2.64-.13-.63-.29-1.4-.36-1.7-.06-.3-.2-.74-.3-.97-.11-.23-.19-.45-.19-.49,0-.16-1-2.2-1.34-2.72-.91-1.41-1.94-2.56-3.42-3.81-.38-.32-1.28-.9-1.41-.9-.05,0-.18-.08-.29-.18-.21-.19-1.28-.72-1.46-.72-.06,0-.36-.11-.67-.24-1.07-.46-2.99-.9-4.41-1.03-1.53-.14-4.53-.07-6.14,.15-1.44,.2-1.93,.31-3.69,.89-.7,.23-2.86,1.27-3.18,1.53-.06,.05-.52,.39-1.02,.76-2.58,1.91-4.47,4.89-5.33,8.42-.42,1.75-.53,2.77-.52,4.91,0,1.11-.03,1.89-.09,1.92-.09,.06-.41-.3-.41-.47,0-.05-.06-.23-.14-.4-.21-.46-.63-2.26-.81-3.43-.17-1.15-.15-4.06,.05-5.07,.22-1.14,.62-2.7,.76-2.92,.08-.12,.14-.29,.14-.38,0-.22,.82-1.87,1.39-2.8,.68-1.11,1.7-2.3,2.8-3.27,.51-.46,1-.87,1.08-.93,.09-.06,.44-.29,.79-.52,.35-.23,.66-.43,.69-.43,.03,0,.18-.08,.32-.18,.15-.1,.53-.29,.87-.41,.33-.13,.82-.34,1.1-.46,1.53-.68,3.71-1.17,6.49-1.44,1.37-.13,4.62-.02,5.81,.2,.29,.05,.78,.15,1.1,.2,.58,.11,1.49,.36,2.57,.71,.56,.18,2.42,1.06,3.1,1.46,.91,.53,2.06,1.41,2.84,2.15,.58,.55,1.91,2.09,1.91,2.21,0,.04,.11,.21,.25,.39,.14,.18,.25,.37,.25,.43,0,.06,.07,.17,.16,.24,.21,.18,1.25,2.32,1.63,3.38,.17,.47,.38,1.23,.47,1.69,.09,.47,.2,.96,.25,1.09,.09,.23,.19,1.5,.23,2.94,.03,1.02-.29,3.19-.62,4.18Z"/>
    <path class="cls-1" d="M20.53,52.74c-.75-.1-1.39-.4-1.77-.83-.39-.44-.46-.67-.34-1,.17-.44,.55-.45,1.3-.04,1.14,.62,1.64,.6,2.54-.12,.45-.36,.73-.39,1.08-.12,.47,.37,.17,1-.82,1.7-.22,.15-.73,.33-1.3,.44-.08,.02-.4,0-.7-.04Z"/>
    <path class="cls-1" d="M17.18,51.17c-.11-.03-.25-.09-.31-.14-.19-.15-.25-.68-.11-.95,.17-.32,1.02-.93,1.94-1.39,.78-.4,.94-.4,2.01,0,.43,.16,.44,.16,.89-.11,.59-.35,1.1-.34,1.82,.02,.3,.15,.57,.3,.6,.33,.03,.03,.23,.19,.45,.36,.71,.53,.75,.58,.75,.97,0,.48-.31,.8-.69,.71-.14-.03-.59-.31-1-.61-.86-.64-1.11-.68-1.72-.26-.34,.24-.52,.29-.92,.28-.33-.01-.53-.07-.58-.17-.05-.08-.24-.2-.43-.26-.29-.1-.4-.08-.74,.09-.22,.11-.43,.25-.46,.3-.06,.1-1.23,.92-1.28,.9-.01,0-.12-.03-.23-.06h0Z"/>
    <path class="cls-1" d="M19.81,45.65c-.31-.05-.74-.17-.95-.27-.34-.16-.39-.22-.41-.58-.04-.58,.21-.7,1.3-.6,1.13,.1,1.22,.1,2.08-.05,1.04-.18,1.33-.08,1.38,.47,.03,.35,0,.43-.26,.61-.52,.37-2.08,.58-3.13,.41h0Z"/>
    <path class="cls-1" d="M8.04,39.64c-.41-.28-.49-.64-.22-.98,.16-.2,.31-.24,.85-.28,.47-.03,.66-.08,.66-.18,0-.07-.2-.36-.45-.64-.25-.28-.45-.57-.45-.64s.13-.27,.28-.44c.4-.43,.72-.34,1.46,.39,.39,.39,.86,.72,1.39,.98,.74,.36,.86,.4,1.47,.36,.89-.04,1.47-.34,2.32-1.19,.38-.37,.79-.75,.91-.83,.46-.3,1.09,.12,.98,.66-.05,.23-1.1,1.43-1.6,1.81-.43,.33-1.11,.69-1.31,.69-.12,0-.24,.04-.27,.1-.09,.15-1.74,.12-2.29-.05-.68-.21-.92-.19-1.56,.11-.35,.16-.79,.28-1.2,.31-.57,.04-.69,.02-1-.19h0Z"/>
    <path class="cls-1" d="M31.59,39.21c-.29-.06-.68-.19-.86-.29-.32-.17-.35-.17-.97,.03-.48,.16-.9,.21-1.72,.21h-1.08s-.95-.47-.95-.47c-.95-.47-1.76-1.16-2.2-1.87-.16-.26-.17-.32-.04-.56,.28-.54,.71-.53,1.31,.03,.25,.23,.61,.51,.79,.62s.5,.32,.72,.47c.5,.35,1.44,.6,1.92,.51,.66-.12,1.35-.55,2.16-1.34,.62-.61,.87-.79,1.11-.81,.69-.05,.83,.53,.32,1.35-.29,.48-.3,.51-.13,.64,.1,.07,.41,.13,.69,.13,.65,0,.95,.2,.95,.64,0,.2-.08,.4-.21,.51-.27,.24-1.13,.33-1.81,.19Z"/>
    <path class="cls-1" d="M7.04,34.07c-.24-.24-.25-.32-.05-.74,.11-.24,.34-.42,.87-.69,2.22-1.13,3.66-1.27,7.26-.7,.52,.08,1.29,.19,1.7,.23,.58,.07,.79,.13,.92,.3,.23,.29,.22,.71-.03,.97-.24,.26-.33,.26-1.27,.07-.4-.08-.96-.16-1.25-.16-.29,0-.78-.07-1.09-.14s-.59-.11-.62-.08-.53,0-1.11-.08c-.95-.12-1.13-.11-1.78,.05-.4,.1-.93,.27-1.17,.38s-.62,.26-.83,.34-.48,.2-.6,.29c-.3,.21-.73,.19-.97-.05h0Z"/>
    <path class="cls-1" d="M33.26,33.56c-.22-.04-.73-.21-1.14-.38-.41-.17-1.08-.38-1.51-.47-.88-.18-1.51-.13-4.35,.31-2.09,.33-2.58,.38-2.91,.3-.23-.06-.25-.11-.22-.48,.04-.55,.32-.71,1.68-.97,4.77-.91,5.96-.88,8.32,.23,.9,.42,1.12,.65,1,1.02-.13,.38-.4,.52-.88,.44h0Z"/>
  </g>
</svg>